<svg width="140" height="45" viewBox="0 0 140 45" fill="none" xmlns="http://www.w3.org/2000/svg">
<g clip-path="url(#clip0_76_999)">
<path d="M133.561 16.5549H139.984C139.172 10.3552 134.606 7.09644 128.26 7.09644C121.836 7.09644 117.541 10.4745 117.541 16.2767C117.541 22.8737 123.074 24.344 126.015 24.9404C129.808 25.6954 133.522 25.7749 133.522 29.113C133.522 31.3783 131.665 32.4911 129.034 32.4911C125.783 32.4911 123.616 30.8219 123.075 27.8018H116.729C117.115 34.3193 121.72 37.8164 128.492 37.8164C134.761 37.8164 139.907 34.8757 139.907 28.517C139.907 21.6814 133.987 20.4495 129.846 19.8136C127.021 19.3765 123.926 18.9791 123.926 15.919C123.926 13.773 125.512 12.4616 128.182 12.4616C131.278 12.4616 133.135 14.25 133.561 16.5549Z" fill="#6A8095"/>
<path d="M113.207 8.09009H107.132V36.9024H113.207V8.09009Z" fill="#6A8095"/>
<path d="M88.7903 26.8477H96.723C95.4846 29.9477 92.6985 31.4179 89.4867 31.4179C83.8374 31.4179 81.2061 26.9272 81.2061 22.4762C81.2061 17.9854 83.6825 13.4152 89.4482 13.4152C92.9695 13.4152 95.6006 15.0844 96.6068 18.0649L103.146 18.0649C102.024 11.3488 96.2972 7.4939 89.5256 7.4939C81.1674 7.4939 74.8987 13.3357 74.8987 22.5557C74.8987 31.8949 81.709 37.4189 89.4867 37.4189C97.1485 37.4189 103.146 32.2924 103.146 24.2646V21.9198H88.7903V26.8477Z" fill="#6A8095"/>
<path d="M61.0073 7.4939C54.0421 7.4939 48.8956 11.9845 48.9343 19.4559H55.203C55.1255 16.1971 57.1376 13.2166 60.6977 13.2166C63.7934 13.2166 65.612 15.4421 65.612 17.9854C65.612 20.5289 63.7933 21.9596 60.4268 23.5096C55.822 25.6158 52.533 26.967 49.1664 28.1593V36.9023H72.6159V31.0205H56.5176C56.5176 31.0205 56.5712 31.0034 56.5976 30.9952C59.3357 30.1431 61.3927 29.2173 63.8321 28.1195C69.0559 25.7351 72.0354 22.7544 72.0354 17.6676C72.0355 11.4281 67.5468 7.4939 61.0073 7.4939Z" fill="#6A8095"/>
<path d="M32.45 26.7684C24.5561 26.8082 23.2792 31.6963 22.8536 35.8294L22.6602 37.6574H21.0735L20.8801 35.8294C20.4545 31.6963 19.1389 26.8082 11.5158 26.7684C10.2389 24.0659 9.69716 21.8802 9.69716 19.4162C9.69716 13.2564 14.6115 7.49381 21.8861 7.49381C29.1609 7.49381 33.9978 13.2165 33.9978 19.4561C33.9978 21.8802 33.7657 24.0659 32.45 26.7684ZM21.8089 0.0224609C9.81335 0.0224609 -0.0153809 10.1168 -0.0153809 22.4761C-0.0153809 34.8756 9.81335 44.9697 21.8089 44.9697C33.9204 44.9697 43.7104 34.8756 43.7104 22.4761C43.7104 10.1168 33.9204 0.0224609 21.8089 0.0224609Z" fill="#29B24A"/>
</g>
<defs>
<clipPath id="clip0_76_999">
<rect width="140" height="44.9474" fill="white"/>
</clipPath>
</defs>
</svg>
