<svg width="24" height="24" viewBox="0 0 24 24" fill="none" xmlns="http://www.w3.org/2000/svg">
<path d="M23.63 4.66666C23.168 3.87266 22.318 3.33333 21.3333 3.33333H12V4.66666H23.63ZM0 16.6667H24V18H0V16.6667ZM12 11.3333H24V12.6667H12V11.3333ZM12 8.66666H24V10H12V8.66666ZM0 14H24V15.3333H0V14ZM2.66667 20.6667H21.3333C22.318 20.6667 23.168 20.1273 23.63 19.3333H0.37C0.832 20.1273 1.682 20.6667 2.66667 20.6667ZM12 5.99999H24V7.33333H12V5.99999Z" fill="#B22334"/>
<path d="M0.0453333 18.4527C0.0566667 18.5147 0.0693333 18.5767 0.0846667 18.6373C0.102 18.7047 0.123333 18.7693 0.146 18.8347C0.205333 19.0073 0.277333 19.174 0.368 19.33L0.37 19.3333H23.63L23.6313 19.3307C23.7208 19.1735 23.7949 19.0081 23.8527 18.8367C23.8966 18.7116 23.9305 18.5832 23.954 18.4527C23.9813 18.306 24 18.1553 24 18H0C0 18.1553 0.0186667 18.3053 0.0453333 18.4527ZM0 15.3333H24V16.6667H0V15.3333ZM0 12.6667V14H24V12.6667H12H0ZM12 10H24V11.3333H12V10ZM12 7.33334H24V8.66667H12V7.33334ZM0.0853333 5.36267C0.102 5.29467 0.125333 5.23001 0.146667 5.16467C0.123515 5.2298 0.103054 5.29586 0.0853333 5.36267ZM12 6.00001H24C24 5.84467 23.9813 5.694 23.954 5.54667C23.9307 5.41608 23.8965 5.28764 23.852 5.16267C23.7942 4.99055 23.7199 4.82444 23.63 4.66667H12V6.00001Z" fill="#EEEEEE"/>
<path d="M12 3.33333H2.66667C1.95942 3.33333 1.28115 3.61428 0.781049 4.11438C0.280952 4.61447 0 5.29275 0 5.99999L0 12.6667H12V3.33333Z" fill="#3C3B6E"/>
<path d="M1.33398 5.15067L1.74598 5.45001L1.58865 5.93334L1.99998 5.63467L2.41198 5.93334L2.25465 5.45001L2.66665 5.15067H2.15732L1.99998 4.66667L1.84332 5.15067H1.33398ZM2.66732 6.484L3.07932 6.78334L2.92198 7.26667L3.33332 6.968L3.74532 7.26667L3.58798 6.78334L3.99998 6.484H3.49065L3.33332 6.00001L3.17665 6.484H2.66732ZM5.33398 6.484L5.74599 6.78334L5.58865 7.26667L5.99998 6.968L6.41198 7.26667L6.25465 6.78334L6.66665 6.484H6.15732L5.99998 6.00001L5.84332 6.484H5.33398ZM8.00065 6.484L8.41265 6.78334L8.25532 7.26667L8.66665 6.968L9.07865 7.26667L8.92132 6.78334L9.33332 6.484H8.82399L8.66665 6.00001L8.50998 6.484H8.00065ZM2.66732 9.15067L3.07932 9.45001L2.92198 9.93334L3.33332 9.63467L3.74532 9.93334L3.58798 9.45001L3.99998 9.15067H3.49065L3.33332 8.66667L3.17665 9.15067H2.66732ZM5.33398 9.15067L5.74599 9.45001L5.58865 9.93334L5.99998 9.63467L6.41198 9.93334L6.25465 9.45001L6.66665 9.15067H6.15732L5.99998 8.66667L5.84332 9.15067H5.33398ZM8.00065 9.15067L8.41265 9.45001L8.25532 9.93334L8.66665 9.63467L9.07865 9.93334L8.92132 9.45001L9.33332 9.15067H8.82399L8.66665 8.66667L8.50998 9.15067H8.00065ZM4.00065 5.15067L4.41265 5.45001L4.25532 5.93334L4.66665 5.63467L5.07865 5.93334L4.92132 5.45001L5.33332 5.15067H4.82398L4.66665 4.66667L4.50998 5.15067H4.00065ZM6.66732 5.15067L7.07932 5.45001L6.92198 5.93334L7.33332 5.63467L7.74532 5.93334L7.58799 5.45001L7.99998 5.15067H7.49065L7.33332 4.66667L7.17665 5.15067H6.66732ZM9.33398 5.15067L9.74599 5.45001L9.58865 5.93334L9.99998 5.63467L10.412 5.93334L10.2547 5.45001L10.6667 5.15067H10.1573L9.99998 4.66667L9.84332 5.15067H9.33398ZM1.33398 7.81734L1.74598 8.11667L1.58865 8.6L1.99998 8.30134L2.41198 8.6L2.25465 8.11667L2.66665 7.81734H2.15732L1.99998 7.33334L1.84332 7.81734H1.33398ZM4.25532 8.6L4.66665 8.30134L5.07865 8.6L4.92132 8.11667L5.33332 7.81734H4.82398L4.66665 7.33334L4.50998 7.81734H4.00065L4.41265 8.11667L4.25532 8.6ZM6.66732 7.81734L7.07932 8.11667L6.92198 8.6L7.33332 8.30134L7.74532 8.6L7.58799 8.11667L7.99998 7.81734H7.49065L7.33332 7.33334L7.17665 7.81734H6.66732ZM9.33398 7.81734L9.74599 8.11667L9.58865 8.6L9.99998 8.30134L10.412 8.6L10.2547 8.11667L10.6667 7.81734H10.1573L9.99998 7.33334L9.84332 7.81734H9.33398ZM1.33398 10.484L1.74598 10.7833L1.58865 11.2667L1.99998 10.968L2.41198 11.2667L2.25465 10.7833L2.66665 10.484H2.15732L1.99998 10L1.84332 10.484H1.33398ZM4.25532 11.2667L4.66665 10.968L5.07865 11.2667L4.92132 10.7833L5.33332 10.484H4.82398L4.66665 10L4.50998 10.484H4.00065L4.41265 10.7833L4.25532 11.2667ZM6.66732 10.484L7.07932 10.7833L6.92198 11.2667L7.33332 10.968L7.74532 11.2667L7.58799 10.7833L7.99998 10.484H7.49065L7.33332 10L7.17665 10.484H6.66732ZM9.33398 10.484L9.74599 10.7833L9.58865 11.2667L9.99998 10.968L10.412 11.2667L10.2547 10.7833L10.6667 10.484H10.1573L9.99998 10L9.84332 10.484H9.33398Z" fill="white"/>
</svg>
