<svg width="24" height="24" viewBox="0 0 24 24" fill="none" xmlns="http://www.w3.org/2000/svg">
<path d="M24 18C24 18.7072 23.719 19.3855 23.219 19.8856C22.7189 20.3857 22.0406 20.6667 21.3333 20.6667H2.66667C1.95942 20.6667 1.28115 20.3857 0.781049 19.8856C0.280952 19.3855 0 18.7072 0 18V5.99999C0 5.29275 0.280952 4.61447 0.781049 4.11438C1.28115 3.61428 1.95942 3.33333 2.66667 3.33333H21.3333C22.0406 3.33333 22.7189 3.61428 23.219 4.11438C23.719 4.61447 24 5.29275 24 5.99999V18Z" fill="#EEEEEE"/>
<path d="M14.2939 8.72334C13.4248 8.11497 12.3497 7.87672 11.305 8.061C10.2603 8.24529 9.33161 8.83701 8.72318 9.70601C8.43589 10.1409 8.32967 10.6708 8.42715 11.1829C8.52463 11.6949 8.8181 12.1487 9.2451 12.4477C9.6721 12.7466 10.1989 12.8671 10.7134 12.7835C11.2279 12.6999 11.6895 12.4188 11.9999 12C12.1505 11.7849 12.3421 11.6015 12.5636 11.4604C12.7852 11.3193 13.0323 11.2232 13.291 11.1776C13.5497 11.132 13.8148 11.1378 14.0712 11.1947C14.3277 11.2515 14.5704 11.3583 14.7855 11.509C15.0007 11.6597 15.184 11.8512 15.3251 12.0728C15.4663 12.2943 15.5624 12.5415 15.6079 12.8002C15.6535 13.0588 15.6477 13.3239 15.5909 13.5804C15.534 13.8368 15.4272 14.0795 15.2765 14.2947C15.5779 13.8643 15.7915 13.3789 15.9052 12.866C16.0189 12.3531 16.0304 11.8228 15.9392 11.3055C15.8479 10.7881 15.6557 10.2938 15.3734 9.85075C15.091 9.4077 14.7242 9.02461 14.2939 8.72334Z" fill="#C60C30"/>
<path d="M14.7852 11.5093C14.3507 11.2051 13.8132 11.0858 13.2909 11.1779C12.7686 11.2699 12.3042 11.5656 11.9998 12C11.6902 12.421 11.2282 12.7041 10.7125 12.7888C10.1969 12.8735 9.66855 12.7531 9.24051 12.4534C8.81246 12.1536 8.5187 11.6983 8.42202 11.1847C8.32534 10.6712 8.43343 10.1402 8.72317 9.70532C8.41304 10.1352 8.19144 10.6224 8.07124 11.1386C7.95105 11.6549 7.93465 12.1899 8.02301 12.7125C8.11137 13.2351 8.30272 13.735 8.58594 14.183C8.86917 14.6311 9.23861 15.0183 9.67281 15.3224C10.107 15.6264 10.5973 15.8411 11.1152 15.9539C11.6331 16.0668 12.1682 16.0756 12.6896 15.9799C13.2109 15.8841 13.708 15.6857 14.152 15.3962C14.596 15.1067 14.978 14.7318 15.2758 14.2933C15.4265 14.0783 15.5334 13.8358 15.5903 13.5795C15.6472 13.3232 15.653 13.0582 15.6075 12.7996C15.5619 12.5411 15.4658 12.294 15.3247 12.0726C15.1836 11.8512 15.0003 11.6598 14.7852 11.5093Z" fill="#003478"/>
<path d="M16.2227 17.048L17.5081 15.516L18.0187 15.9446L16.7334 17.4766L16.2227 17.048ZM17.9361 15.006L19.2214 13.4746L19.7321 13.9033L18.4467 15.4346L17.9361 15.006ZM17.2441 17.9066L18.5294 16.3753L19.0401 16.804L17.7547 18.3353L17.2441 17.9066ZM18.9587 15.8626L20.2454 14.3313L20.7561 14.7606L19.4694 16.2913L18.9587 15.8626ZM18.2647 18.764L19.5514 17.2326L20.0614 17.6613L18.7754 19.1926L18.2647 18.764ZM19.9787 16.7206L21.2634 15.1873L21.7747 15.616L20.4901 17.1493L19.9787 16.7206ZM19.9814 7.27931L20.4921 6.85064L21.7787 8.38331L21.2674 8.81197L19.9814 7.27931ZM18.2667 5.23531L18.7774 4.80664L20.0627 6.33931L19.5514 6.76731L18.2667 5.23531ZM17.2447 6.09397L17.7554 5.66531L20.7554 9.23997L20.2447 9.66864L17.2447 6.09397ZM16.2234 6.94997L16.7347 6.52131L18.0194 8.05331L17.5087 8.48131L16.2234 6.94997ZM17.9367 8.99331L18.4474 8.56464L19.7341 10.096L19.2241 10.5246L17.9367 8.99331ZM4.26672 13.9026L4.77739 13.474L7.77672 17.0493L7.26539 17.478L4.26672 13.9026ZM3.24672 14.76L3.75672 14.332L5.04272 15.864L4.53139 16.2926L3.24672 14.76ZM4.95806 16.804L5.46872 16.3753L6.75539 17.9066L6.24472 18.3353L4.95806 16.804ZM2.22406 15.6166L2.73472 15.188L5.73472 18.7626L5.22339 19.1913L2.22406 15.6166ZM2.22339 8.38197L5.22206 4.80731L5.73339 5.23531L2.73339 8.81064L2.22339 8.38197ZM3.24472 9.23997L6.24472 5.66464L6.75539 6.09331L3.75539 9.66797L3.24472 9.23997ZM4.26672 10.0966L7.26672 6.52131L7.77739 6.94997L4.77739 10.5253L4.26672 10.0966Z" fill="#292F33"/>
</svg>
