<svg width="24" height="24" viewBox="0 0 24 24" fill="none" xmlns="http://www.w3.org/2000/svg">
<path d="M13.7774 12.6667L13.4661 13.206H14.0887L13.7774 12.6667ZM12.0001 14.412L12.3114 13.8727H11.6887L12.0001 14.412Z" fill="#EDECEC"/>
<path d="M0 16.6667H24V7.33334H0V16.6667ZM0.196 5.00001H23.8047C23.6055 4.5077 23.2639 4.08607 22.8236 3.78913C22.3833 3.4922 21.8644 3.33349 21.3333 3.33334H2.66667C2.1357 3.33353 1.61688 3.49227 1.1767 3.7892C0.736518 4.08614 0.395031 4.50775 0.196 5.00001Z" fill="#EEEEEE"/>
<path d="M14.0887 10.794H13.466L13.7774 11.3333L14.0887 10.794ZM10.534 10.794H9.91138L10.2227 11.3333L10.534 10.794ZM12.696 13.206L13.3927 12L12.696 10.794H11.304L10.6074 12L11.304 13.206H12.696ZM10.2227 12.6666L9.91138 13.206H10.534L10.2227 12.6666ZM12 9.58798L11.6887 10.1273H12.3114L12 9.58798Z" fill="#EDECEC"/>
<path d="M0.196 5C0.0667023 5.31755 0.000142925 5.65714 0 6L0 7.33333H24V6C24 5.646 23.9293 5.30933 23.804 5H0.196Z" fill="#0038B8"/>
<path d="M0.196045 19H23.8047C23.6056 19.4923 23.264 19.9139 22.8237 20.2109C22.3834 20.5078 21.8644 20.6665 21.3334 20.6667H2.66671C2.13574 20.6665 1.61692 20.5077 1.17674 20.2108C0.736563 19.9139 0.395076 19.4923 0.196045 19Z" fill="#EEEEEE"/>
<path d="M0.196 19C0.0667023 18.6824 0.000142925 18.3428 0 18L0 16.6666H24V18C24 18.354 23.9293 18.6906 23.804 19H0.196ZM10.9187 13.8726L12 15.7453L13.0813 13.8726H15.2433L14.1627 12L15.244 10.1273H13.082L12 8.25464L10.9187 10.1273H8.75667L9.83733 12L8.756 13.8726H10.9187ZM12 14.412L11.6887 13.8726H12.3113L12 14.412ZM14.0887 10.794L13.7773 11.3333L13.466 10.7946L14.0887 10.794ZM13.7773 12.6666L14.0887 13.2053H13.466L13.7773 12.6666ZM12 9.58797L12.3113 10.1273H11.6887L12 9.58797ZM11.304 10.794H12.6967L13.3927 12L12.6967 13.206H11.304L10.6073 12L11.304 10.794ZM10.534 10.794L10.2227 11.3333L9.91133 10.7946L10.534 10.794ZM10.2227 12.6666L10.534 13.2053H9.91133L10.2227 12.6666Z" fill="#0038B8"/>
</svg>
