<svg width="20" height="20" viewBox="0 0 20 20" fill="none" xmlns="http://www.w3.org/2000/svg">
<path fill-rule="evenodd" clip-rule="evenodd" d="M10.0002 19.1667C5.67896 19.1667 3.51835 19.1667 2.17592 17.8243C0.833496 16.4819 0.833496 14.3212 0.833496 10C0.833496 5.67883 0.833496 3.51823 2.17592 2.1758C3.51835 0.833374 5.67896 0.833374 10.0002 0.833374C14.3214 0.833374 16.482 0.833374 17.8244 2.1758C19.1668 3.51823 19.1668 5.67883 19.1668 10C19.1668 14.3212 19.1668 16.4819 17.8244 17.8243C16.482 19.1667 14.3214 19.1667 10.0002 19.1667ZM10.0002 15.2709C10.3799 15.2709 10.6877 14.9631 10.6877 14.5834V9.08337C10.6877 8.70368 10.3799 8.39587 10.0002 8.39587C9.62047 8.39587 9.31266 8.70368 9.31266 9.08337V14.5834C9.31266 14.9631 9.62047 15.2709 10.0002 15.2709ZM10.0002 5.41671C10.5064 5.41671 10.9168 5.82711 10.9168 6.33337C10.9168 6.83964 10.5064 7.25004 10.0002 7.25004C9.4939 7.25004 9.0835 6.83964 9.0835 6.33337C9.0835 5.82711 9.4939 5.41671 10.0002 5.41671Z" fill="#FBAB33"/>
<path fill-rule="evenodd" clip-rule="evenodd" d="M10.0002 19.1667C5.67896 19.1667 3.51835 19.1667 2.17592 17.8243C0.833496 16.4819 0.833496 14.3212 0.833496 10C0.833496 5.67883 0.833496 3.51823 2.17592 2.1758C3.51835 0.833374 5.67896 0.833374 10.0002 0.833374C14.3214 0.833374 16.482 0.833374 17.8244 2.1758C19.1668 3.51823 19.1668 5.67883 19.1668 10C19.1668 14.3212 19.1668 16.4819 17.8244 17.8243C16.482 19.1667 14.3214 19.1667 10.0002 19.1667ZM10.0002 15.2709C10.3799 15.2709 10.6877 14.9631 10.6877 14.5834V9.08337C10.6877 8.70368 10.3799 8.39587 10.0002 8.39587C9.62047 8.39587 9.31266 8.70368 9.31266 9.08337V14.5834C9.31266 14.9631 9.62047 15.2709 10.0002 15.2709ZM10.0002 5.41671C10.5064 5.41671 10.9168 5.82711 10.9168 6.33337C10.9168 6.83964 10.5064 7.25004 10.0002 7.25004C9.4939 7.25004 9.0835 6.83964 9.0835 6.33337C9.0835 5.82711 9.4939 5.41671 10.0002 5.41671Z" fill="url(#paint0_linear_402_653)" fill-opacity="0.2"/>
<defs>
<linearGradient id="paint0_linear_402_653" x1="10.0002" y1="0.833374" x2="10.0002" y2="19.1667" gradientUnits="userSpaceOnUse">
<stop offset="0.26656" stop-opacity="0"/>
<stop offset="1"/>
</linearGradient>
</defs>
</svg>
