<svg width="46" height="46" viewBox="0 0 46 46" fill="none" xmlns="http://www.w3.org/2000/svg">
<path d="M18.026 4.22896C20.9151 5.44031 25.085 5.44032 27.9741 4.22897C30.3216 3.24474 32.9474 3.15347 35.3701 4.1848C40.4839 6.36162 42.777 12.7238 40.5495 18.4621L40.5509 18.4627L39.0601 22.1394C38.7082 23.0073 37.8652 23.5752 36.9286 23.5752H9.07155C8.13502 23.5752 7.29201 23.0073 6.9401 22.1394L5.44929 18.4627L5.45066 18.4621C3.22316 12.7238 5.51625 6.36162 10.63 4.1848C13.0528 3.15348 15.6785 3.24475 18.026 4.22896Z" fill="url(#paint0_linear_55_195)"/>
<path d="M18.026 4.22896C20.9151 5.44031 25.085 5.44032 27.9741 4.22897C30.3216 3.24474 32.9474 3.15347 35.3701 4.1848C40.4839 6.36162 42.777 12.7238 40.5495 18.4621L40.5509 18.4627L39.0601 22.1394C38.7082 23.0073 37.8652 23.5752 36.9286 23.5752H9.07155C8.13502 23.5752 7.29201 23.0073 6.9401 22.1394L5.44929 18.4627L5.45066 18.4621C3.22316 12.7238 5.51625 6.36162 10.63 4.1848C13.0528 3.15348 15.6785 3.24475 18.026 4.22896Z" fill="url(#paint1_linear_55_195)" fill-opacity="0.1"/>
<path d="M18.026 4.22896C20.9151 5.44031 25.085 5.44032 27.9741 4.22897C30.3216 3.24474 32.9474 3.15347 35.3701 4.1848C40.4839 6.36162 42.777 12.7238 40.5495 18.4621L40.5509 18.4627L39.0601 22.1394C38.7082 23.0073 37.8652 23.5752 36.9286 23.5752H9.07155C8.13502 23.5752 7.29201 23.0073 6.9401 22.1394L5.44929 18.4627L5.45066 18.4621C3.22316 12.7238 5.51625 6.36162 10.63 4.1848C13.0528 3.15348 15.6785 3.24475 18.026 4.22896Z" fill="url(#paint2_linear_55_195)" fill-opacity="0.05"/>
<path d="M12.6501 25.3003H33.3501L29.0256 38.2137C28.1581 40.8042 25.732 42.5503 23.0001 42.5503C20.2683 42.5503 17.8422 40.8042 16.9747 38.2137L12.6501 25.3003Z" fill="url(#paint3_linear_55_195)"/>
<path d="M6.90015 25.0127C6.90015 24.2188 7.54374 23.5752 8.33765 23.5752H37.6626C38.4566 23.5752 39.1001 24.2188 39.1001 25.0127C39.1001 25.8066 38.4566 26.4502 37.6626 26.4502H8.33765C7.54374 26.4502 6.90015 25.8066 6.90015 25.0127Z" fill="url(#paint4_linear_55_195)"/>
<path d="M15.5251 37.9503C15.5251 37.3152 16.04 36.8003 16.6751 36.8003H29.3251C29.9603 36.8003 30.4751 37.3152 30.4751 37.9503C30.4751 38.5854 29.9603 39.1003 29.3251 39.1003H16.6751C16.04 39.1003 15.5251 38.5854 15.5251 37.9503Z" fill="url(#paint5_linear_55_195)"/>
<path d="M14.0876 33.9254C14.0876 33.2903 14.6025 32.7754 15.2376 32.7754H30.7626C31.3978 32.7754 31.9126 33.2903 31.9126 33.9254C31.9126 34.5605 31.3978 35.0754 30.7626 35.0754H15.2376C14.6025 35.0754 14.0876 34.5605 14.0876 33.9254Z" fill="url(#paint6_linear_55_195)"/>
<path d="M12.6501 29.9C12.6501 29.2649 13.165 28.75 13.8001 28.75H32.2001C32.8353 28.75 33.3501 29.2649 33.3501 29.9C33.3501 30.5351 32.8353 31.05 32.2001 31.05H13.8001C13.165 31.05 12.6501 30.5351 12.6501 29.9Z" fill="url(#paint7_linear_55_195)"/>
<defs>
<linearGradient id="paint0_linear_55_195" x1="9.47068" y1="3.4502" x2="30.9427" y2="41.9809" gradientUnits="userSpaceOnUse">
<stop stop-color="white"/>
<stop offset="1" stop-color="#DCDCDC"/>
</linearGradient>
<linearGradient id="paint1_linear_55_195" x1="22.7126" y1="24.4377" x2="22.7126" y2="22.7127" gradientUnits="userSpaceOnUse">
<stop offset="0.241809"/>
<stop offset="1" stop-opacity="0.47"/>
</linearGradient>
<linearGradient id="paint2_linear_55_195" x1="23.0001" y1="23.5752" x2="23.0001" y2="21.2752" gradientUnits="userSpaceOnUse">
<stop/>
<stop offset="1" stop-opacity="0"/>
</linearGradient>
<linearGradient id="paint3_linear_55_195" x1="33.3501" y1="38.1071" x2="9.801" y2="30.3157" gradientUnits="userSpaceOnUse">
<stop stop-color="#BCC1D6"/>
<stop offset="1" stop-color="#E9ECFA"/>
</linearGradient>
<linearGradient id="paint4_linear_55_195" x1="17.2696" y1="23.5752" x2="25.9988" y2="25.016" gradientUnits="userSpaceOnUse">
<stop stop-color="#F0F3FF"/>
<stop offset="1" stop-color="#E1E5F5"/>
</linearGradient>
<linearGradient id="paint5_linear_55_195" x1="20.3396" y1="36.8003" x2="23.3933" y2="37.6013" gradientUnits="userSpaceOnUse">
<stop stop-color="#F1F4FF"/>
<stop offset="1" stop-color="#D5DAF0"/>
</linearGradient>
<linearGradient id="paint6_linear_55_195" x1="21.0505" y1="32.7754" x2="24.7482" y2="33.8364" gradientUnits="userSpaceOnUse">
<stop stop-color="#F1F4FF"/>
<stop offset="1" stop-color="#D5DAF0"/>
</linearGradient>
<linearGradient id="paint7_linear_55_195" x1="20.9876" y1="28.75" x2="25.3065" y2="30.1306" gradientUnits="userSpaceOnUse">
<stop stop-color="#F1F4FF"/>
<stop offset="1" stop-color="#D5DAF0"/>
</linearGradient>
</defs>
</svg>
