<svg width="92" height="26" viewBox="0 0 92 26" fill="none" xmlns="http://www.w3.org/2000/svg">
<g clip-path="url(#clip0_55_1036)">
<path d="M32.8832 9.74756V6.73642C32.8832 2.73336 30.5806 0.359863 26.6838 0.359863C22.8224 0.359863 20.5906 2.66251 20.5906 6.73642V7.2678C20.5906 10.8457 21.6888 12.6879 24.452 13.786L26.0107 14.3529C28.703 15.451 29.4115 16.3367 29.4115 18.2496V19.7375C29.4115 21.6505 28.4196 22.7841 26.7192 22.7841C25.0542 22.7841 24.0623 21.6505 24.0623 19.7375V16.4784H20.5198V19.4895C20.5198 23.528 22.7516 25.8661 26.6838 25.8661C30.616 25.8661 32.9541 23.4926 32.9541 19.4895V18.8164C32.9541 15.1676 31.8913 13.4318 29.0218 12.3336L27.6048 11.8022C24.8062 10.6686 24.1332 9.78299 24.1332 7.87002V6.48844C24.1332 4.57547 25.0896 3.44186 26.7192 3.44186C28.3488 3.44186 29.3407 4.57547 29.3407 6.48844V9.74756H32.8832ZM45.6163 0.714116H33.926V3.79612H37.9999V25.5118H41.5424V3.79612H45.6163V0.714116ZM47.0558 0.714116V25.5118H52.9718C56.5852 25.5118 59.2775 23.7406 59.2775 19.3832V6.84269C59.2775 2.52081 56.5852 0.714116 52.9718 0.714116H47.0558ZM50.5984 3.79612H52.9364C54.4243 3.79612 55.6996 4.50462 55.6996 6.80727V19.4187C55.6996 21.7213 54.4243 22.4298 52.9364 22.4298H50.5984V3.79612ZM64.6777 0.678691H61.1351V25.5118H64.6777V14.6717H65.2445L69.7435 25.5118H73.534L68.1493 13.113L72.9672 0.678691H69.1767L65.2445 11.5543H64.6777V0.678691ZM74.7655 0.714116V25.5118H78.3081V0.714116H74.7655ZM91.2471 0.714116H79.5568V3.79612H83.6307V25.5118H87.1732V3.79612H91.2471V0.714116Z" fill="#302B44"/>
<path d="M6.89842 24.9773L6.7002 25.5117H7.27023H9.31834H9.59419L9.69013 25.253L18.6133 1.19559L18.8115 0.661133H18.2415H16.1934H15.9176L15.8216 0.91978L6.89842 24.9773Z" fill="#302B44" stroke="#302B44" stroke-width="0.793103"/>
<path d="M0.817864 24.9773L0.619629 25.5117H1.18966H3.23777H3.51363L3.60957 25.253L12.5327 1.19559L12.731 0.661133H12.1609H10.1128H9.83696L9.74102 0.91978L0.817864 24.9773Z" fill="#302B44" stroke="#302B44" stroke-width="0.793103"/>
</g>
<defs>
<clipPath id="clip0_55_1036">
<rect width="92" height="25.908" fill="white"/>
</clipPath>
</defs>
</svg>
