<svg width="42" height="42" viewBox="0 0 42 42" fill="none" xmlns="http://www.w3.org/2000/svg">
<g clip-path="url(#clip0_55_980)">
<path d="M21.0408 21.4141C24.5442 21.4141 27.4002 18.5581 27.4002 15.0547C27.4002 11.5513 24.5442 8.69531 21.0408 8.69531C17.4993 8.69531 14.6433 11.5513 14.6433 15.0547C14.6433 18.5581 17.4993 21.4141 21.0408 21.4141ZM21.0408 12.4272C22.4878 12.4272 23.6683 13.6076 23.6683 15.0547C23.6683 16.5017 22.4878 17.6822 21.0408 17.6822C19.5937 17.6822 18.4132 16.5017 18.4132 15.0547C18.3752 13.6076 19.5556 12.4272 21.0408 12.4272Z" fill="white"/>
<path d="M23.5921 26.6313C24.8868 26.3266 26.1435 25.8315 27.2857 25.108C28.1617 24.5749 28.4282 23.3944 27.8571 22.5186C27.324 21.6427 26.1435 21.3761 25.2676 21.9473C22.6781 23.5848 19.289 23.5848 16.6996 21.9473C15.8237 21.4142 14.6813 21.6427 14.1101 22.5186C13.6151 23.3944 13.8816 24.5368 14.7575 25.0699C15.8999 25.7935 17.1565 26.2885 18.4513 26.5932L14.9098 30.1347C14.1863 30.8582 14.1863 32.0387 14.9098 32.7622C15.2906 33.1429 15.7476 33.2953 16.2426 33.2953C16.7377 33.2953 17.1946 33.1048 17.5754 32.7622L21.0788 29.2588L24.5822 32.7622C25.3057 33.4857 26.4861 33.4857 27.2097 32.7622C27.9332 32.0387 27.9332 30.8582 27.2097 30.1347L23.5921 26.6313Z" fill="white"/>
<rect width="42" height="42" rx="8" fill="#FF8800"/>
<path d="M21.0408 21.4141C24.5442 21.4141 27.4002 18.5581 27.4002 15.0547C27.4002 11.5513 24.5442 8.69531 21.0408 8.69531C17.4993 8.69531 14.6433 11.5513 14.6433 15.0547C14.6433 18.5581 17.4993 21.4141 21.0408 21.4141ZM21.0408 12.4272C22.4878 12.4272 23.6683 13.6076 23.6683 15.0547C23.6683 16.5017 22.4878 17.6822 21.0408 17.6822C19.5937 17.6822 18.4132 16.5017 18.4132 15.0547C18.3752 13.6076 19.5556 12.4272 21.0408 12.4272Z" fill="white"/>
<path d="M23.5921 26.6313C24.8868 26.3266 26.1435 25.8315 27.286 25.108C28.1617 24.5749 28.4282 23.3944 27.8571 22.5186C27.324 21.6427 26.1435 21.3761 25.2676 21.9473C22.6782 23.5848 19.289 23.5848 16.6996 21.9473C15.8237 21.4142 14.6813 21.6427 14.1101 22.5186C13.6151 23.3944 13.8816 24.5368 14.7575 25.0699C15.8999 25.7935 17.1565 26.2885 18.4513 26.5932L14.9098 30.1347C14.1863 30.8582 14.1863 32.0387 14.9098 32.7622C15.2906 33.1429 15.7476 33.2953 16.2426 33.2953C16.7377 33.2953 17.1946 33.1048 17.5754 32.7622L21.0788 29.2588L24.5822 32.7622C25.3057 33.4857 26.4861 33.4857 27.2097 32.7622C27.9332 32.0387 27.9332 30.8582 27.2097 30.1347L23.5921 26.6313Z" fill="white"/>
</g>
<defs>
<clipPath id="clip0_55_980">
<rect width="42" height="42" rx="8" fill="white"/>
</clipPath>
</defs>
</svg>
