<svg width="260" height="23" viewBox="0 0 260 23" fill="none" xmlns="http://www.w3.org/2000/svg">
<g clip-path="url(#clip0_76_948)">
<mask id="mask0_76_948" style="mask-type:luminance" maskUnits="userSpaceOnUse" x="0" y="0" width="260" height="23">
<path d="M260 0H0V23H260V0Z" fill="white"/>
</mask>
<g mask="url(#mask0_76_948)">
<path fill-rule="evenodd" clip-rule="evenodd" d="M11.12 0.168218C11.1658 0.16822 11.2118 0.168222 11.258 0.168222C11.3041 0.168222 11.3502 0.16822 11.3959 0.168218C13.3086 0.168119 14.9495 0.168034 16.2621 0.340631C17.666 0.525239 19.0017 0.940239 20.0839 1.99865C21.166 3.05707 21.5904 4.36344 21.7791 5.73655C21.9555 7.02029 21.9555 8.62519 21.9554 10.4958V20.6223C21.9554 21.747 21.0232 22.6587 19.8733 22.6587C18.7234 22.6587 17.7913 21.747 17.7913 20.6223V10.6308C17.7913 8.5872 17.7868 7.25929 17.6522 6.27922C17.5254 5.35774 17.3189 5.05406 17.1394 4.87848C16.9599 4.7029 16.6494 4.5009 15.7072 4.37701C14.7052 4.24524 13.3475 4.24092 11.258 4.24092C9.16846 4.24092 7.81077 4.24524 6.80868 4.37701C5.86652 4.5009 5.55603 4.7029 5.37652 4.87848C5.19699 5.05406 4.99046 5.35774 4.86378 6.27922C4.72906 7.25929 4.72464 8.5872 4.72464 10.6308V20.6223C4.72464 21.747 3.79248 22.6587 2.6426 22.6587C1.49272 22.6587 0.560557 21.747 0.560557 20.6223V10.6308C0.560557 10.5857 0.560554 10.5407 0.560552 10.4958C0.560451 8.62519 0.560365 7.02029 0.736837 5.73655C0.925586 4.36344 1.3499 3.05707 2.43206 1.99865C3.51423 0.940239 4.84991 0.525239 6.25383 0.340631C7.56639 0.168034 9.20732 0.168119 11.12 0.168218Z" fill="#EC2327"/>
<path fill-rule="evenodd" clip-rule="evenodd" d="M25.3892 3.77129C25.3892 1.87103 26.9643 0.330566 28.9071 0.330566H38.9584C42.4873 0.330566 45.3481 3.12855 45.3481 6.58005V8.87557C45.3481 12.3271 42.4873 15.1251 38.9584 15.1251H29.5533V20.6238C29.5533 21.7485 28.6211 22.6602 27.4713 22.6602C26.3214 22.6602 25.3892 21.7485 25.3892 20.6238V3.77129ZM29.5533 11.0524H38.9584C40.1875 11.0524 41.184 10.0778 41.184 8.87557V6.58005C41.184 5.37784 40.1875 4.40326 38.9584 4.40326H29.5533V11.0524Z" fill="#EC2327"/>
<path fill-rule="evenodd" clip-rule="evenodd" d="M191.635 3.72198C191.635 1.82172 193.21 0.28125 195.153 0.28125H205.204C208.733 0.28125 211.594 3.07924 211.594 6.53073V8.82626C211.594 12.2777 208.733 15.0757 205.204 15.0757H195.799V20.5745C195.799 21.6991 194.867 22.6108 193.717 22.6108C192.567 22.6108 191.635 21.6991 191.635 20.5745V3.72198ZM195.799 11.0031H205.204C206.433 11.0031 207.43 10.0285 207.43 8.82626V6.53073C207.43 5.32853 206.433 4.35394 205.204 4.35394H195.799V11.0031Z" fill="#6A8095"/>
<path fill-rule="evenodd" clip-rule="evenodd" d="M243.088 0.371141L242.99 0.371118C242.4 0.370903 241.768 0.370673 241.235 0.440716C240.613 0.522492 239.826 0.731823 239.164 1.37891C238.503 2.02599 238.289 2.79568 238.205 3.40392C238.134 3.9249 238.134 4.54338 238.134 5.12119V5.21624V10.73C238.134 10.7346 238.134 10.7393 238.134 10.744C238.134 10.7479 238.134 10.7519 238.134 10.7558V20.5746C238.134 21.6993 239.066 22.611 240.216 22.611C240.323 22.611 240.429 22.603 240.532 22.5877C240.635 22.603 240.74 22.611 240.848 22.611H252.421H252.54C253.089 22.6113 253.554 22.6116 253.973 22.5575C256.841 22.1884 259.097 19.9816 259.474 17.1773C259.53 16.7671 259.529 16.3121 259.529 15.7755V15.6594V15.5433C259.529 15.0067 259.53 14.5517 259.474 14.1415C259.271 12.6334 258.525 11.2982 257.433 10.3286C258.295 9.30592 258.811 7.99581 258.811 6.53087C258.811 3.07938 255.95 0.371141 252.421 0.371141H243.088ZM242.298 12.5974V18.5383H252.421C253.155 18.5383 253.319 18.5339 253.43 18.5197C254.428 18.3911 255.214 17.6225 255.346 16.6456C255.36 16.5375 255.365 16.3763 255.365 15.6594C255.365 14.9424 255.36 14.7812 255.346 14.6731C255.214 13.6962 254.428 12.7446 253.43 12.616C253.319 12.6017 253.155 12.5974 252.421 12.5974H242.298ZM252.421 8.70763H242.298V5.21624C242.298 4.90553 242.298 4.6596 242.302 4.44833C242.519 4.44395 242.771 4.44384 243.088 4.44384H252.421C253.65 4.44384 254.647 5.32867 254.647 6.53087C254.647 7.7331 253.65 8.70763 252.421 8.70763Z" fill="#6A8095"/>
<path fill-rule="evenodd" clip-rule="evenodd" d="M108.671 0.25806C108.712 0.258061 108.752 0.258063 108.792 0.258063C108.833 0.258063 108.874 0.258061 108.914 0.25806C110.607 0.257991 112.06 0.257931 113.238 0.381111C114.489 0.511904 115.701 0.803048 116.771 1.56438C117.244 1.90069 117.667 2.29299 118.03 2.73128C118.85 3.72347 119.164 4.84805 119.305 6.00821C119.438 7.10086 119.438 8.44854 119.438 10.0185V13.0846C119.438 14.6545 119.438 16.0022 119.305 17.0948C119.164 18.255 118.85 19.3796 118.03 20.3718C117.667 20.8101 117.244 21.2024 116.771 21.5386C115.701 22.3 114.489 22.5911 113.238 22.7219C112.06 22.8451 110.607 22.845 108.914 22.845H108.671C106.979 22.845 105.526 22.8451 104.348 22.7219C103.097 22.5911 101.884 22.3 100.814 21.5386C100.342 21.2024 99.9188 20.8101 99.5558 20.3718C98.7349 19.3796 98.4208 18.255 98.2799 17.0948C98.1477 16.0022 98.1477 14.6544 98.1477 13.0845V10.1309C98.1477 10.0933 98.1477 10.0558 98.1477 10.0185C98.1477 8.44854 98.1477 7.10087 98.2799 6.00821C98.4208 4.84805 98.7349 3.72347 99.5558 2.73128C99.9188 2.29299 100.342 1.90069 100.814 1.56438C101.884 0.803048 103.097 0.511904 104.348 0.381111C105.526 0.257931 106.979 0.257991 108.671 0.25806ZM104.554 4.47481C103.699 4.56418 103.395 4.71337 103.227 4.8327C103.063 4.94984 102.915 5.08649 102.789 5.23915C102.661 5.39466 102.5 5.67695 102.403 6.46972C102.302 7.304 102.298 8.41708 102.298 10.1309V12.9721C102.298 14.686 102.302 15.799 102.403 16.6333C102.5 17.4261 102.661 17.7084 102.789 17.8639C102.915 18.0166 103.063 18.1532 103.227 18.2703C103.395 18.3896 103.699 18.5388 104.554 18.6282C105.453 18.7223 106.945 18.7254 108.792 18.7254C110.641 18.7254 112.248 18.7223 113.147 18.6282C114.002 18.5388 114.307 18.3896 114.474 18.2703C114.639 18.1532 114.786 18.0166 114.913 17.8639C115.041 17.7084 115.202 17.4261 115.298 16.6333C115.4 15.799 115.403 14.686 115.403 12.9721V10.1309C115.403 8.41708 115.4 7.304 115.298 6.46972C115.202 5.67695 115.041 5.39466 114.913 5.23915C114.786 5.08649 114.639 4.94984 114.474 4.8327C114.307 4.71337 114.002 4.56418 113.147 4.47481C112.248 4.38075 110.641 4.37769 108.792 4.37769C106.945 4.37769 105.453 4.38075 104.554 4.47481Z" fill="#6A8095"/>
<path fill-rule="evenodd" clip-rule="evenodd" d="M58.5349 0.25806C58.5752 0.258061 58.6156 0.258063 58.6562 0.258063C58.6967 0.258063 58.7371 0.258061 58.7774 0.25806C60.4701 0.257991 61.9233 0.257931 63.1014 0.381111C64.3523 0.511904 65.5648 0.803048 66.6346 1.56438C67.1072 1.90069 67.5302 2.29299 67.8928 2.73128C68.7137 3.72347 69.0276 4.84805 69.1687 6.00821C69.3014 7.10086 69.3014 8.44854 69.3013 10.0185V13.0846C69.3014 14.6545 69.3014 16.0022 69.1687 17.0948C69.0276 18.255 68.7137 19.3796 67.8928 20.3718C67.5302 20.8101 67.1072 21.2024 66.6346 21.5386C65.5648 22.3 64.3523 22.5911 63.1014 22.7219C61.9233 22.8451 60.4701 22.845 58.7774 22.845H58.535C56.8422 22.845 55.389 22.8451 54.2109 22.7219C52.96 22.5911 51.7475 22.3 50.6777 21.5386C50.2051 21.2024 49.7821 20.8101 49.4195 20.3718C48.5986 19.3796 48.2847 18.255 48.1437 17.0948C48.0109 16.0022 48.0109 14.6544 48.011 13.0845V10.1309C48.011 10.0933 48.011 10.0558 48.011 10.0185C48.0109 8.44854 48.0109 7.10087 48.1437 6.00821C48.2847 4.84805 48.5986 3.72347 49.4195 2.73128C49.7821 2.29299 50.2051 1.90069 50.6777 1.56438C51.7475 0.803048 52.96 0.511904 54.2109 0.381111C55.389 0.257931 56.8422 0.257991 58.5349 0.25806ZM54.4176 4.47481C53.5628 4.56418 53.2584 4.71337 53.0907 4.8327C52.9262 4.94984 52.7788 5.08649 52.6525 5.23915C52.5238 5.39466 52.363 5.67695 52.2666 6.46972C52.1652 7.304 52.1619 8.41708 52.1619 10.1309V12.9721C52.1619 14.686 52.1652 15.799 52.2666 16.6333C52.363 17.4261 52.5238 17.7084 52.6525 17.8639C52.7788 18.0166 52.9262 18.1532 53.0907 18.2703C53.2584 18.3896 53.5628 18.5388 54.4176 18.6282C55.3171 18.7223 56.8081 18.7254 58.6562 18.7254C60.5042 18.7254 62.1111 18.7223 63.0107 18.6282C63.8655 18.5388 64.1698 18.3896 64.3375 18.2703C64.5021 18.1532 64.6494 18.0166 64.7758 17.8639C64.9044 17.7084 65.0653 17.4261 65.1616 16.6333C65.263 15.799 65.2663 14.686 65.2663 12.9721V10.1309C65.2663 8.41708 65.263 7.304 65.1616 6.46972C65.0653 5.67695 64.9044 5.39466 64.7758 5.23915C64.6494 5.08649 64.5021 4.94984 64.3375 4.8327C64.1698 4.71337 63.8655 4.56418 63.0107 4.47481C62.1111 4.38075 60.5042 4.37769 58.6562 4.37769C56.8081 4.37769 55.3171 4.38075 54.4176 4.47481Z" fill="#EC2327"/>
<path fill-rule="evenodd" clip-rule="evenodd" d="M177.932 0.266849C177.973 0.266852 178.013 0.266853 178.053 0.266853C178.094 0.266853 178.134 0.266852 178.174 0.266849C179.867 0.26678 181.321 0.266721 182.499 0.389902C183.75 0.520694 184.962 0.811831 186.032 1.57316C186.505 1.90948 186.928 2.30178 187.29 2.74007C188.111 3.73226 188.425 4.85683 188.566 6.017C188.699 7.10965 188.699 8.45731 188.699 10.0272V13.0934C188.699 14.6633 188.699 16.0109 188.566 17.1036C188.425 18.2638 188.111 19.3884 187.29 20.3806C186.928 20.8188 186.505 21.2112 186.032 21.5475C184.962 22.3088 183.75 22.5999 182.499 22.7307C181.321 22.8539 179.867 22.8538 178.174 22.8538H177.932C176.24 22.8538 174.786 22.8539 173.608 22.7307C172.357 22.5999 171.145 22.3088 170.075 21.5475C169.603 21.2112 169.18 20.8188 168.817 20.3806C167.996 19.3884 167.682 18.2638 167.541 17.1036C167.409 16.0109 167.409 14.6633 167.409 13.0934V10.1397C167.409 10.1022 167.409 10.0646 167.409 10.0273C167.409 8.45738 167.409 7.10966 167.541 6.017C167.682 4.85683 167.996 3.73226 168.817 2.74007C169.18 2.30178 169.603 1.90948 170.075 1.57316C171.145 0.811831 172.357 0.520694 173.608 0.389902C174.786 0.266721 176.24 0.26678 177.932 0.266849ZM173.815 4.4836C172.96 4.57297 172.656 4.72216 172.488 4.84149C172.324 4.95863 172.176 5.09527 172.05 5.24793C171.921 5.40345 171.761 5.68573 171.664 6.47851C171.563 7.31279 171.559 8.42585 171.559 10.1397V12.9809C171.559 14.6948 171.563 15.8078 171.664 16.6421C171.761 17.4349 171.921 17.7172 172.05 17.8727C172.176 18.0254 172.324 18.162 172.488 18.2791C172.656 18.3985 172.96 18.5476 173.815 18.637C174.714 18.7311 176.205 18.7341 178.053 18.7341C179.902 18.7341 181.508 18.7311 182.408 18.637C183.263 18.5476 183.567 18.3985 183.735 18.2791C183.9 18.162 184.047 18.0254 184.173 17.8727C184.302 17.7172 184.463 17.4349 184.559 16.6421C184.661 15.8078 184.664 14.6948 184.664 12.9809V10.1397C184.664 8.42585 184.661 7.31279 184.559 6.47851C184.463 5.68573 184.302 5.40345 184.173 5.24793C184.047 5.09527 183.9 4.95863 183.735 4.84149C183.567 4.72216 183.263 4.57297 182.408 4.4836C181.508 4.38954 179.902 4.38648 178.053 4.38648C176.205 4.38648 174.714 4.38954 173.815 4.4836Z" fill="#6A8095"/>
<path fill-rule="evenodd" clip-rule="evenodd" d="M224.578 0.269779C224.619 0.26978 224.659 0.269781 224.7 0.269781C224.74 0.269781 224.78 0.26978 224.821 0.269779C226.513 0.26971 227.967 0.269649 229.145 0.39283C230.396 0.523623 231.608 0.814763 232.678 1.5761C233.151 1.9124 233.573 2.30471 233.936 2.74299C234.757 3.73519 235.071 4.85976 235.212 6.01993C235.345 7.11257 235.345 8.46023 235.345 10.0301V13.0963C235.345 14.6662 235.345 16.0139 235.212 17.1066C235.071 18.2667 234.757 19.3913 233.936 20.3835C233.573 20.8217 233.151 21.2141 232.678 21.5504C231.608 22.3117 230.396 22.6028 229.145 22.7336C227.967 22.8568 226.513 22.8568 224.821 22.8567H224.579C222.886 22.8568 221.432 22.8568 220.254 22.7336C219.003 22.6028 217.791 22.3117 216.721 21.5504C216.248 21.2141 215.826 20.8217 215.463 20.3835C214.642 19.3913 214.328 18.2667 214.187 17.1066C214.055 16.0138 214.055 14.6662 214.055 13.0963V10.1427C214.055 10.1051 214.055 10.0675 214.055 10.0302C214.055 8.46031 214.055 7.11259 214.187 6.01993C214.328 4.85976 214.642 3.73519 215.463 2.74299C215.826 2.30471 216.248 1.9124 216.721 1.5761C217.791 0.814763 219.003 0.523623 220.254 0.39283C221.432 0.269649 222.886 0.26971 224.578 0.269779ZM220.461 4.48652C219.607 4.5759 219.302 4.72509 219.134 4.84442C218.97 4.96155 218.822 5.0982 218.696 5.25087C218.567 5.40637 218.407 5.68866 218.31 6.48143C218.209 7.31572 218.205 8.42878 218.205 10.1427V12.9838C218.205 14.6977 218.209 15.8108 218.31 16.645C218.407 17.4378 218.567 17.7201 218.696 17.8756C218.822 18.0283 218.97 18.1649 219.134 18.282C219.302 18.4014 219.607 18.5506 220.461 18.6399C221.361 18.734 222.851 18.737 224.7 18.737C226.548 18.737 228.154 18.734 229.054 18.6399C229.909 18.5506 230.213 18.4014 230.381 18.282C230.546 18.1649 230.693 18.0283 230.819 17.8756C230.948 17.7201 231.109 17.4378 231.205 16.645C231.307 15.8108 231.309 14.6977 231.309 12.9838V10.1427C231.309 8.42878 231.307 7.31572 231.205 6.48143C231.109 5.68866 230.948 5.40637 230.819 5.25087C230.693 5.0982 230.546 4.96155 230.381 4.84442C230.213 4.72509 229.909 4.5759 229.054 4.48652C228.154 4.39247 226.548 4.38941 224.7 4.38941C222.851 4.38941 221.361 4.39247 220.461 4.48652Z" fill="#6A8095"/>
<path fill-rule="evenodd" clip-rule="evenodd" d="M90.3639 18.6854L83.9311 4.70255L77.5231 18.6854H90.3639ZM94.686 18.6854L86.7845 1.61434C85.9826 -0.016759 81.8613 -0.0307901 81.0689 1.61235L73.1761 18.6854H72.7579C71.6079 18.6854 70.6758 19.5629 70.6758 20.6454C70.6758 21.7278 71.6079 22.6054 72.7579 22.6054H95.1052C96.2548 22.6054 97.1874 21.7278 97.1874 20.6454C97.1874 19.5629 96.2548 18.6854 95.1052 18.6854H94.686Z" fill="#6A8095"/>
<path fill-rule="evenodd" clip-rule="evenodd" d="M141.661 4.00803L131.085 11.4654L142.25 18.8504C143.202 19.4805 143.452 20.7464 142.808 21.678C142.164 22.6097 140.87 22.8541 139.917 22.2241L127.951 14.3094C127.428 13.9631 127.037 13.5135 126.779 13.013V20.5739C126.779 21.6986 125.847 22.6103 124.697 22.6103C123.547 22.6103 122.616 21.6986 122.616 20.5739V2.31706C122.616 1.19242 123.547 0.28071 124.697 0.28071C125.847 0.28071 126.779 1.19242 126.779 2.31706V9.90576C127.042 9.39471 127.444 8.93701 127.983 8.5886L139.364 0.610031C140.324 -0.00993285 141.616 0.248155 142.25 1.18649C142.883 2.12482 142.619 3.38807 141.661 4.00803Z" fill="#6A8095"/>
<path fill-rule="evenodd" clip-rule="evenodd" d="M144.781 2.32053C144.781 1.19588 145.713 0.28418 146.863 0.28418H164.094C165.243 0.28418 166.176 1.19588 166.176 2.32053C166.176 3.44517 165.243 4.35687 164.094 4.35687H146.863C145.713 4.35687 144.781 3.44517 144.781 2.32053Z" fill="#6A8095"/>
<path fill-rule="evenodd" clip-rule="evenodd" d="M155.479 0.388428C156.628 0.388428 157.56 1.30013 157.56 2.42477V20.6817C157.56 21.8063 156.628 22.7181 155.479 22.7181C154.328 22.7181 153.396 21.8063 153.396 20.6817V2.42477C153.396 1.30013 154.328 0.388428 155.479 0.388428Z" fill="#6A8095"/>
</g>
</g>
<defs>
<clipPath id="clip0_76_948">
<rect width="260" height="23" fill="white"/>
</clipPath>
</defs>
</svg>
