<svg width="42" height="42" viewBox="0 0 42 42" fill="none" xmlns="http://www.w3.org/2000/svg">
<rect width="42" height="42" rx="8" fill="#26D044"/>
<path fill-rule="evenodd" clip-rule="evenodd" d="M28.8529 13.1384C26.7691 11.0622 23.998 9.91826 21.0456 9.91699C14.9622 9.91699 10.0109 14.8442 10.0085 20.9005C10.0079 22.4497 10.3332 23.9693 10.9582 25.3683C11.2584 26.0401 11.3719 26.7914 11.1767 27.5007C10.6165 29.5373 12.4713 31.4166 14.515 30.883L14.6802 30.8399C15.3784 30.6577 16.1136 30.7629 16.7796 31.0407C18.1224 31.6007 19.5716 31.8927 21.0411 31.8932H21.0457C27.1285 31.8932 32.0801 26.9654 32.0827 20.909C32.0837 17.9742 30.9367 15.2145 28.8529 13.1384ZM21.0457 30.0382H21.042C19.3959 30.0375 17.7814 29.5974 16.373 28.7656C16.1586 28.639 15.9025 28.6032 15.6616 28.6661L15.2602 28.7708C14.0629 29.0834 12.9763 27.9825 13.3045 26.7893L13.3843 26.4992C13.4534 26.2482 13.4135 25.9798 13.2746 25.7596C12.3564 24.3062 11.8713 22.6261 11.872 20.901C11.8741 15.8673 15.9892 11.7721 21.0494 11.7721C23.4995 11.773 25.8029 12.7238 27.5349 14.4496C29.2668 16.1753 30.22 18.469 30.219 20.9085C30.217 25.9426 26.1018 30.0382 21.0457 30.0382ZM26.0775 23.2004C25.8017 23.0631 24.446 22.3991 24.1932 22.3075C23.9404 22.2161 23.7565 22.1702 23.5727 22.445C23.3889 22.7198 22.8603 23.3379 22.6994 23.5212C22.5385 23.7042 22.3776 23.7272 22.102 23.5898C21.8261 23.4525 20.9376 23.1626 19.8842 22.2275C19.0644 21.4998 18.5109 20.6011 18.3501 20.3262C18.1892 20.0514 18.3329 19.9029 18.471 19.7661C18.595 19.643 18.7468 19.4454 18.8847 19.2852C19.0227 19.125 19.0685 19.0104 19.1605 18.8273C19.2525 18.6441 19.2065 18.4838 19.1375 18.3465C19.0685 18.209 18.517 16.8581 18.2872 16.3086C18.0633 15.7735 17.836 15.8459 17.6667 15.8374C17.5061 15.8295 17.322 15.8277 17.1381 15.8277C16.9543 15.8277 16.6556 15.8964 16.4027 16.1712C16.15 16.4459 15.4376 17.1099 15.4376 18.4609C15.4376 19.8118 16.4257 21.1168 16.5636 21.3C16.7015 21.4832 18.5083 24.2553 21.2746 25.4443C21.9325 25.7271 22.4462 25.8959 22.8468 26.0225C23.5075 26.2314 24.1087 26.2018 24.5837 26.1312C25.1136 26.0524 26.2154 25.4672 26.4452 24.8261C26.6749 24.185 26.6749 23.6354 26.606 23.521C26.5371 23.4066 26.3533 23.3379 26.0775 23.2004Z" fill="white"/>
</svg>
