<svg width="140" height="41" viewBox="0 0 140 41" fill="none" xmlns="http://www.w3.org/2000/svg">
<g clip-path="url(#clip0_76_917)">
<path d="M133.477 35.2884C136.223 35.2884 138.169 34.7914 139.618 33.7209V28.8654C138.131 29.8976 136.338 30.5476 133.82 30.5476C129.586 30.5476 127.831 27.2596 127.831 22.06C127.831 16.5928 129.967 13.8018 133.858 13.8018C136.147 13.8018 138.398 14.6047 139.58 15.3693V10.3227C138.321 9.63447 136.147 9.13745 133.172 9.13745C125.58 9.13745 121.651 14.6047 121.651 22.2512C121.689 30.624 125.542 35.2884 133.477 35.2884ZM96.3596 33.0709V28.2154C94.5285 29.4771 91.4005 30.5858 88.5394 30.5858C84.1907 30.5858 82.5503 28.5213 82.2833 24.3157H96.6266V21.1807C96.6266 12.4254 92.7738 9.13745 86.861 9.13745C79.613 9.13745 76.1798 14.6811 76.1798 22.2894C76.1798 31.0446 80.4904 35.2884 88.0435 35.2884C91.8201 35.2884 94.6048 34.2561 96.3596 33.0709ZM41.9236 9.59624V19.5367H33.989V9.59624H28.0381V34.7914H33.989V24.2775H41.9236V34.7914H47.8746V9.59624H41.9236ZM74.692 30.0506H72.0599V9.59624H54.7411V11.7373C54.7411 17.8927 54.3596 25.845 52.2615 30.0506H50.3542V40.5262H55.8473V34.7914H69.1607V40.5262H74.6539V30.0506H74.692ZM115.319 34.7914H122.071L112.534 21.2189L120.926 9.59624H114.937L106.545 21.2189V9.59624H100.594V34.7914H106.545V22.4041L115.319 34.7914ZM86.7084 13.8018C89.6457 13.8018 90.5612 16.2487 90.5612 19.422V19.919H82.2833C82.4359 15.9046 83.8855 13.8018 86.7084 13.8018ZM66.1089 30.0506H57.7166C59.3569 26.2656 59.8147 19.3837 59.8147 15.0252V14.2606H66.1089V30.0506Z" fill="#6A8095"/>
<path d="M23.079 34.7915H17.0136V4.70258H14.3052C9.34605 4.70258 6.75204 7.18769 6.75204 10.8962C6.75204 15.1018 8.54496 17.0516 12.2452 19.5367L15.297 21.6013L6.52316 34.7915H0L7.89646 23.0159C3.35695 19.7661 0.80109 16.5929 0.80109 11.2403C0.80109 4.54965 5.45504 0 14.267 0H23.0409V34.7915H23.079Z" fill="#FC3F1D"/>
</g>
<defs>
<clipPath id="clip0_76_917">
<rect width="140" height="40.5263" fill="white"/>
</clipPath>
</defs>
</svg>
