<?xml version="1.0"?>
<svg xmlns="http://www.w3.org/2000/svg" xmlns:xlink="http://www.w3.org/1999/xlink" version="1.1" xml:space="preserve">
  <defs>

    <symbol id="logo" width="100%" height="100%" viewBox="0 0 61 55">
      <path fill-rule="evenodd" clip-rule="evenodd" d="M12.6099 5.45635C13.8049 8.45778 14.9294 11.0672 15.1081 11.2567C15.2859 11.4461 18.0503 8.99555 21.2502 5.81167L27.0677 0.0209525L18.7521 0.0104763L10.4366 0L12.6099 5.45635ZM35.2286 0.681826C35.2286 1.61857 45.4023 11.7805 45.8585 11.2994C46.0595 11.0864 47.2029 8.45778 48.3978 5.45635L50.5712 0H42.8999C38.6803 0 35.2286 0.307302 35.2286 0.681826ZM24.7053 6.67508C21.5165 9.82841 18.9068 12.5627 18.9068 12.7513C18.9068 12.9407 23.9322 13.0952 30.0743 13.0952C36.2165 13.0952 41.2419 12.7897 41.2419 12.4152C41.2419 12.0415 38.8263 9.30722 35.8729 6.33897L30.5039 0.941985L24.7053 6.67508ZM3.65869 6.94309C1.65024 9.74722 0.00774456 12.279 0.00774456 12.5679C0.00774456 12.8578 2.94826 13.0952 6.54251 13.0952C11.403 13.0952 12.9785 12.8159 12.6924 12.004C12.4811 11.4042 11.5903 8.85063 10.7132 6.32937C9.83523 3.8081 8.71074 1.76786 8.21335 1.79579C7.71682 1.82286 5.66628 4.13897 3.65869 6.94309ZM50.0429 6.79992C48.9819 9.58048 48.1143 12.134 48.1143 12.4745C48.1143 12.8159 51.0136 13.0952 54.5572 13.0952C58.1007 13.0952 61 12.8691 61 12.5924C61 11.7613 53.2162 1.74603 52.5693 1.74603C52.2403 1.74603 51.1038 4.02024 50.0429 6.79992ZM1.33024e-05 15.4559C-0.0171676 16.9557 16.614 55 17.2866 55C17.6809 55 20.3723 51.4198 23.2673 47.0433C27.2197 41.0702 28.3494 38.7078 27.7996 37.5633C24.9965 31.7271 15.7704 15.7309 15.2034 15.7239C14.8203 15.7187 14.7086 17.3844 14.9551 19.4246C15.2017 21.4648 15.5934 27.8492 15.8254 33.6111L17.2866 55L14.5694 33.1746C13.6468 27.1726 12.591 20.6905 12.2242 18.7698L11.5559 15.2778L5.78225 15.0194C2.60636 14.8779 0.00430853 15.0744 1.33024e-05 15.4559ZM19.7658 15.8016C19.7658 16.9601 29.1157 33.8826 30.0958 34.4981C30.7693 34.9206 41.2419 17.1897 41.2419 15.6279C41.2419 15.1948 36.4098 14.8413 30.5039 14.8413C23.2681 14.8413 19.7658 15.1547 19.7658 15.8016ZM48.1822 20.7341C47.6616 23.9748 46.6797 29.9663 46.0011 34.0476L43.3243 54.8385L45.1875 31.4286C45.4195 25.9067 45.8035 20.1125 46.0414 18.5516C46.2794 16.9906 46.1514 15.7143 45.7562 15.7143C44.9556 15.7143 33.2159 36.3541 32.8456 38.4127C32.6094 39.7248 41.9214 54.3217 43.3243 54.8385C43.9909 55.0838 61 17.27 61 15.544C61 15.1573 58.3292 14.8413 55.064 14.8413H49.1288L48.1822 20.7341Z" fill="currentColor"/>
    </symbol>

    <symbol id="loader" width="100%" height="100%" viewBox="22 22 44 44">
      <circle cx="44" cy="44" r="20.2" fill="none" stroke="currentColor" stroke-width="4"></circle>
    </symbol>

    <symbol id="burger" width="100%" height="100%" viewBox="0 0 48 48">
      <path d="M41,14H7a2,2,0,0,1,0-4H41A2,2,0,0,1,41,14Z" fill="currentColor"/>
      <path d="M41,26H7a2,2,0,0,1,0-4H41A2,2,0,0,1,41,26Z" fill="currentColor"/>
      <path d="M41,38H7a2,2,0,0,1,0-4H41A2,2,0,0,1,41,38Z" fill="currentColor"/>
    </symbol>

    <symbol id="close" width="100%" height="100%" viewBox="0 0 24 24">
      <path fill-rule="evenodd" clip-rule="evenodd" d="M21 12C21 16.9706 16.9706 21 12 21C7.02944 21 3 16.9706 3 12C3 7.02944 7.02944 3 12 3C16.9706 3 21 7.02944 21 12ZM7.29289 16.7071C6.90237 16.3166 6.90237 15.6834 7.29289 15.2929L10.5858 12L7.29289 8.70711C6.90237 8.31658 6.90237 7.68342 7.29289 7.29289C7.68342 6.90237 8.31658 6.90237 8.70711 7.29289L12 10.5858L15.2929 7.29289C15.6834 6.90237 16.3166 6.90237 16.7071 7.29289C17.0976 7.68342 17.0976 8.31658 16.7071 8.70711L13.4142 12L16.7071 15.2929C17.0976 15.6834 17.0976 16.3166 16.7071 16.7071C16.3166 17.0976 15.6834 17.0976 15.2929 16.7071L12 13.4142L8.70711 16.7071C8.31658 17.0976 7.68342 17.0976 7.29289 16.7071Z" fill="currentColor"/>
    </symbol>

    <symbol id="success" width="100%" height="100%" viewBox="0 0 24 24">
      <path d="M12 21C16.9706 21 21 16.9706 21 12C21 7.02944 16.9706 3 12 3C7.02944 3 3 7.02944 3 12C3 16.9706 7.02944 21 12 21Z" fill="currentColor"/>
      <path d="M9 12L11 14L15 10" fill="var(--color-none)" stroke="white" stroke-width="2" stroke-linecap="round" stroke-linejoin="round"/>
    </symbol>

    <symbol id="arrow-left" width="100%" height="100%" viewBox="0 0 11 18">
      <path d="M3.76777 9L9.88388 2.88388C10.372 2.39573 10.372 1.60427 9.88388 1.11612C9.39573 0.627961 8.60427 0.627961 8.11612 1.11612L1.11612 8.11612C0.62796 8.60427 0.62796 9.39573 1.11612 9.88388L8.11612 16.8839C8.60427 17.372 9.39573 17.372 9.88388 16.8839C10.372 16.3957 10.372 15.6043 9.88388 15.1161L3.76777 9Z" fill="currentColor"/>
    </symbol>

    <symbol id="arrow-right" width="100%" height="100%" viewBox="0 0 11 18">
      <path d="M7.23223 9L1.11612 2.88388C0.627961 2.39573 0.627961 1.60427 1.11612 1.11612C1.60427 0.627961 2.39573 0.627961 2.88388 1.11612L9.88388 8.11612C10.372 8.60427 10.372 9.39573 9.88388 9.88388L2.88388 16.8839C2.39573 17.372 1.60427 17.372 1.11612 16.8839C0.627961 16.3957 0.627961 15.6043 1.11612 15.1161L7.23223 9Z" fill="currentColor"/>
    </symbol>

    <symbol id="geo" width="100%" height="100%" viewBox="0 0 20 20">
      <path fill-rule="evenodd" clip-rule="evenodd" d="M5.0505 4.05025C7.78417 1.31658 12.2163 1.31658 14.95 4.05025C17.6837 6.78392 17.6837 11.2161 14.95 13.9497L10.0002 18.8995L5.0505 13.9497C2.31683 11.2161 2.31683 6.78392 5.0505 4.05025ZM10.0002 11C11.1048 11 12.0002 10.1046 12.0002 9C12.0002 7.89543 11.1048 7 10.0002 7C8.89568 7 8.00024 7.89543 8.00024 9C8.00024 10.1046 8.89568 11 10.0002 11Z" fill="currentColor"/>
    </symbol>

    <symbol id="clock" width="100%" height="100%" viewBox="0 0 20 20">
      <path fill-rule="evenodd" clip-rule="evenodd" d="M10 18C14.4183 18 18 14.4183 18 10C18 5.58172 14.4183 2 10 2C5.58172 2 2 5.58172 2 10C2 14.4183 5.58172 18 10 18ZM11 6C11 5.44772 10.5523 5 10 5C9.44772 5 9 5.44772 9 6V10C9 10.2652 9.10536 10.5196 9.29289 10.7071L12.1213 13.5355C12.5118 13.9261 13.145 13.9261 13.5355 13.5355C13.9261 13.145 13.9261 12.5118 13.5355 12.1213L11 9.58579V6Z" fill="currentColor"/>
    </symbol>

    <symbol id="tel" width="100%" height="100%" viewBox="0 0 20 20">
      <path d="M2.00024 3C2.00024 2.44772 2.44796 2 3.00024 2H5.15312C5.64196 2 6.05915 2.35341 6.13951 2.8356L6.87882 7.27147C6.951 7.70451 6.7323 8.13397 6.33964 8.3303L4.7915 9.10437C5.9078 11.8783 8.12192 14.0924 10.8959 15.2087L11.6699 13.6606C11.8663 13.2679 12.2957 13.0492 12.7288 13.1214L17.1646 13.8607C17.6468 13.9411 18.0002 14.3583 18.0002 14.8471V17C18.0002 17.5523 17.5525 18 17.0002 18H15.0002C7.82054 18 2.00024 12.1797 2.00024 5V3Z" fill="currentColor"/>
    </symbol>

    <symbol id="location" width="100%" height="100%" viewBox="0 0 24 24">
      <path d="M12 14C13.6569 14 15 12.6569 15 11C15 9.34315 13.6569 8 12 8C10.3431 8 9 9.34315 9 11C9 12.6569 10.3431 14 12 14Z" fill="var(--color-none)" stroke="currentColor" stroke-width="2" stroke-linecap="round" stroke-linejoin="round"/>
      <path d="M17.657 16.6572L13.414 20.9002C13.039 21.2748 12.5306 21.4853 12.0005 21.4853C11.4704 21.4853 10.962 21.2748 10.587 20.9002L6.343 16.6572C5.22422 15.5384 4.46234 14.1129 4.15369 12.5611C3.84504 11.0092 4.00349 9.40071 4.60901 7.93893C5.21452 6.47714 6.2399 5.22774 7.55548 4.3487C8.87107 3.46967 10.4178 3.00049 12 3.00049C13.5822 3.00049 15.1289 3.46967 16.4445 4.3487C17.7601 5.22774 18.7855 6.47714 19.391 7.93893C19.9965 9.40071 20.155 11.0092 19.8463 12.5611C19.5377 14.1129 18.7758 15.5384 17.657 16.6572V16.6572Z" fill="var(--color-none)" stroke="currentColor" stroke-width="2" stroke-linecap="round" stroke-linejoin="round"/>
    </symbol>

    <symbol id="phone" width="100%" height="100%" viewBox="0 0 24 24">
      <path d="M5 4H9L11 9L8.5 10.5C9.57096 12.6715 11.3285 14.429 13.5 15.5L15 13L20 15V19C20 19.5304 19.7893 20.0391 19.4142 20.4142C19.0391 20.7893 18.5304 21 18 21C14.0993 20.763 10.4202 19.1065 7.65683 16.3432C4.8935 13.5798 3.23705 9.90074 3 6C3 5.46957 3.21071 4.96086 3.58579 4.58579C3.96086 4.21071 4.46957 4 5 4" fill="var(--color-none)" stroke="currentColor" stroke-width="2" stroke-linecap="round" stroke-linejoin="round"/>
      <path d="M15 7C15.5304 7 16.0391 7.21071 16.4142 7.58579C16.7893 7.96086 17 8.46957 17 9" fill="var(--color-none)" stroke="currentColor" stroke-width="2" stroke-linecap="round" stroke-linejoin="round"/>
      <path d="M15 3C16.5913 3 18.1174 3.63214 19.2426 4.75736C20.3679 5.88258 21 7.4087 21 9" fill="var(--color-none)" stroke="currentColor" stroke-width="2" stroke-linecap="round" stroke-linejoin="round"/>
    </symbol>

    <symbol id="email" width="100%" height="100%" viewBox="0 0 24 24">
      <path d="M19 5H5C3.89543 5 3 5.89543 3 7V17C3 18.1046 3.89543 19 5 19H19C20.1046 19 21 18.1046 21 17V7C21 5.89543 20.1046 5 19 5Z" fill="var(--color-none)" stroke="currentColor" stroke-width="2" stroke-linecap="round" stroke-linejoin="round"/>
      <path d="M3 7L12 13L21 7" fill="var(--color-none)" stroke="currentColor" stroke-width="2" stroke-linecap="round" stroke-linejoin="round"/>
    </symbol>

    <symbol id="time" width="100%" height="100%" viewBox="0 0 24 24">
      <path d="M12 21C16.9706 21 21 16.9706 21 12C21 7.02944 16.9706 3 12 3C7.02944 3 3 7.02944 3 12C3 16.9706 7.02944 21 12 21Z" fill="var(--color-none)" stroke="currentColor" stroke-width="2" stroke-linecap="round" stroke-linejoin="round"/>
      <path d="M12 7V12L15 15" fill="var(--color-none)" stroke="currentColor" stroke-width="2" stroke-linecap="round" stroke-linejoin="round"/>
    </symbol>

    <symbol id="protect" width="100%" height="100%" viewBox="0 0 42 42">
      <path d="M15.75 21L19.25 24.5L26.25 17.5" fill="var(--color-none)" stroke="currentColor" stroke-width="3" stroke-linecap="round" stroke-linejoin="round"/>
      <path d="M21 5.25C25.0877 8.86651 30.4228 10.7495 35.875 10.5C36.6687 13.2003 36.9116 16.0326 36.5892 18.8286C36.2667 21.6246 35.3855 24.3272 33.9979 26.7759C32.6103 29.2246 30.7446 31.3694 28.5118 33.0828C26.2789 34.7963 23.7243 36.0434 21 36.75C18.2756 36.0434 15.721 34.7963 13.4882 33.0828C11.2553 31.3694 9.3896 29.2246 8.002 26.7759C6.6144 24.3272 5.73319 21.6246 5.41074 18.8286C5.08828 16.0326 5.33117 13.2003 6.12495 10.5C11.5771 10.7495 16.9122 8.86651 21 5.25" fill="var(--color-none)" stroke="currentColor" stroke-width="3" stroke-linecap="round" stroke-linejoin="round"/>
    </symbol>

    <symbol id="check" width="100%" height="100%" viewBox="0 0 24 24">
      <path d="M12 21C16.9706 21 21 16.9706 21 12C21 7.02944 16.9706 3 12 3C7.02944 3 3 7.02944 3 12C3 16.9706 7.02944 21 12 21Z" fill="var(--color-none)" stroke="currentColor" stroke-width="2" stroke-linecap="round" stroke-linejoin="round"/>
      <path d="M9 12L11 14L15 10" fill="var(--color-none)" stroke="currentColor" stroke-width="2" stroke-linecap="round" stroke-linejoin="round"/>
    </symbol>

    <symbol id="star" width="100%" height="100%" viewBox="0 0 16 16">
      <path d="M7.99989 11.8334L3.88522 13.9967L4.67122 9.41472L1.33789 6.17005L5.93789 5.50338L7.99522 1.33472L10.0526 5.50338L14.6526 6.17005L11.3192 9.41472L12.1052 13.9967L7.99989 11.8334Z" fill="currentColor"/>
    </symbol>

  </defs>
</svg>